<?xml version="1.0" encoding="UTF-8" standalone="no"?>
<!-- Created with Inkscape (http://www.inkscape.org/) -->

<svg
   xmlns:dc="http://purl.org/dc/elements/1.1/"
   xmlns:cc="http://creativecommons.org/ns#"
   xmlns:rdf="http://www.w3.org/1999/02/22-rdf-syntax-ns#"
   xmlns:svg="http://www.w3.org/2000/svg"
   xmlns="http://www.w3.org/2000/svg"
   xmlns:sodipodi="http://sodipodi.sourceforge.net/DTD/sodipodi-0.dtd"
   xmlns:inkscape="http://www.inkscape.org/namespaces/inkscape"
   version="1.1"
   id="svg3713"
   xml:space="preserve"
   width="170.66667"
   height="170.66667"
   viewBox="0 0 170.66667 170.66667"
   sodipodi:docname="AzureAISpot.svg"
   inkscape:version="0.92.4 (5da689c313, 2019-01-14)"><metadata
     id="metadata3719"><rdf:RDF><cc:Work
         rdf:about=""><dc:format>image/svg+xml</dc:format><dc:type
           rdf:resource="http://purl.org/dc/dcmitype/StillImage" /><dc:title></dc:title></cc:Work></rdf:RDF></metadata><defs
     id="defs3717"><clipPath
       clipPathUnits="userSpaceOnUse"
       id="clipPath3779"><path
         d="M 0,128 H 128 V 0 H 0 Z"
         id="path3777"
         inkscape:connector-curvature="0" /></clipPath></defs><sodipodi:namedview
     pagecolor="#ffffff"
     bordercolor="#666666"
     borderopacity="1"
     objecttolerance="10"
     gridtolerance="10"
     guidetolerance="10"
     inkscape:pageopacity="0"
     inkscape:pageshadow="2"
     inkscape:window-width="2560"
     inkscape:window-height="1369"
     id="namedview3715"
     showgrid="false"
     inkscape:zoom="7.0312498"
     inkscape:cx="69.295447"
     inkscape:cy="97.473102"
     inkscape:window-x="1912"
     inkscape:window-y="-8"
     inkscape:window-maximized="1"
     inkscape:current-layer="g3721" /><g
     id="g3721"
     inkscape:groupmode="layer"
     inkscape:label="AZ_LiteralSpotIllustrations_All_0819_RGB"
     transform="matrix(1.3333333,0,0,-1.3333333,0,170.66667)"><path
       d="M 0,-0.42666669 H 128.64 V 128 H 0 Z"
       style="fill:#ffffff;fill-opacity:1;fill-rule:nonzero;stroke:none;stroke-width:1.00416625"
       id="path3723"
       inkscape:connector-curvature="0" /><g
       id="g3725"
       transform="translate(6.0293,121.9998)"><path
         d="M 0,0 115.971,-116"
         style="fill:none;stroke:#0078d4;stroke-width:2;stroke-linecap:butt;stroke-linejoin:miter;stroke-miterlimit:10;stroke-dasharray:none;stroke-opacity:1"
         id="path3727"
         inkscape:connector-curvature="0" /></g><g
       id="g3729"
       transform="translate(6,5.9998)"><path
         d="M 0,0 116,116"
         style="fill:none;stroke:#0078d4;stroke-width:2;stroke-linecap:butt;stroke-linejoin:miter;stroke-miterlimit:10;stroke-dasharray:none;stroke-opacity:1"
         id="path3731"
         inkscape:connector-curvature="0" /></g><g
       id="g3733"
       transform="translate(6,64.0301)"><path
         d="M 0,0 H 116"
         style="fill:none;stroke:#0078d4;stroke-width:2;stroke-linecap:butt;stroke-linejoin:miter;stroke-miterlimit:10;stroke-dasharray:none;stroke-opacity:1"
         id="path3735"
         inkscape:connector-curvature="0" /></g><g
       id="g3737"
       transform="translate(63.9892,122.1389)"><path
         d="M 0,0 0.011,-116.139"
         style="fill:none;stroke:#0078d4;stroke-width:2;stroke-linecap:butt;stroke-linejoin:miter;stroke-miterlimit:10;stroke-dasharray:none;stroke-opacity:1"
         id="path3739"
         inkscape:connector-curvature="0" /></g><g
       id="g3741"
       transform="translate(6,5.9998)"><path
         d="M 0,0 116,58.03"
         style="fill:none;stroke:#0078d4;stroke-width:2;stroke-linecap:butt;stroke-linejoin:miter;stroke-miterlimit:10;stroke-dasharray:none;stroke-opacity:1"
         id="path3743"
         inkscape:connector-curvature="0" /></g><g
       id="g3745"
       transform="translate(122,5.9998)"><path
         d="M 0,0 -116,58.03"
         style="fill:none;stroke:#0078d4;stroke-width:2;stroke-linecap:butt;stroke-linejoin:miter;stroke-miterlimit:10;stroke-dasharray:none;stroke-opacity:1"
         id="path3747"
         inkscape:connector-curvature="0" /></g><g
       id="g3749"
       transform="translate(6.0293,121.9998)"><path
         d="M 0,0 115.971,-57.97"
         style="fill:none;stroke:#0078d4;stroke-width:2;stroke-linecap:butt;stroke-linejoin:miter;stroke-miterlimit:10;stroke-dasharray:none;stroke-opacity:1"
         id="path3751"
         inkscape:connector-curvature="0" /></g><g
       id="g3753"
       transform="translate(122,121.9998)"><path
         d="M 0,0 -116,-57.97"
         style="fill:none;stroke:#0078d4;stroke-width:2;stroke-linecap:butt;stroke-linejoin:miter;stroke-miterlimit:10;stroke-dasharray:none;stroke-opacity:1"
         id="path3755"
         inkscape:connector-curvature="0" /></g><g
       id="g3757"
       transform="translate(64,121.9998)"><path
         d="M 0,0 58,-57.97"
         style="fill:none;stroke:#0078d4;stroke-width:2;stroke-linecap:butt;stroke-linejoin:miter;stroke-miterlimit:10;stroke-dasharray:none;stroke-opacity:1"
         id="path3759"
         inkscape:connector-curvature="0" /></g><g
       id="g3761"
       transform="translate(63.9892,122.1389)"><path
         d="M 0,0 -57.989,-58.109"
         style="fill:none;stroke:#0078d4;stroke-width:2;stroke-linecap:butt;stroke-linejoin:miter;stroke-miterlimit:10;stroke-dasharray:none;stroke-opacity:1"
         id="path3763"
         inkscape:connector-curvature="0" /></g><g
       id="g3765"
       transform="translate(64,5.9998)"><path
         d="M 0,0 58,58.03"
         style="fill:none;stroke:#0078d4;stroke-width:2;stroke-linecap:butt;stroke-linejoin:miter;stroke-miterlimit:10;stroke-dasharray:none;stroke-opacity:1"
         id="path3767"
         inkscape:connector-curvature="0" /></g><g
       id="g3769"
       transform="translate(64,5.9998)"><path
         d="M 0,0 -58.25,58.139"
         style="fill:none;stroke:#0078d4;stroke-width:2;stroke-linecap:butt;stroke-linejoin:miter;stroke-miterlimit:10;stroke-dasharray:none;stroke-opacity:1"
         id="path3771"
         inkscape:connector-curvature="0" /></g><g
       id="g3773"><g
         id="g3775"
         clip-path="url(#clipPath3779)"><g
           id="g3781"
           transform="translate(12,121.9998)"><path
             d="m 0,0 c 0,-3.313 -2.687,-6 -6,-6 -3.313,0 -6,2.687 -6,6 0,3.314 2.687,6 6,6 3.313,0 6,-2.686 6,-6"
             style="fill:#50e6ff;fill-opacity:1;fill-rule:nonzero;stroke:none"
             id="path3783"
             inkscape:connector-curvature="0" /></g><g
           id="g3785"
           transform="translate(12,64.0301)"><path
             d="m 0,0 c 0,-3.314 -2.687,-6 -6,-6 -3.313,0 -6,2.686 -6,6 0,3.313 2.687,6 6,6 3.313,0 6,-2.687 6,-6"
             style="fill:#000000;fill-opacity:1;fill-rule:nonzero;stroke:none"
             id="path3787"
             inkscape:connector-curvature="0" /></g><g
           id="g3789"
           transform="translate(12,5.9998)"><path
             d="m 0,0 c 0,-3.313 -2.687,-6 -6,-6 -3.313,0 -6,2.687 -6,6 0,3.314 2.687,6 6,6 3.313,0 6,-2.686 6,-6"
             style="fill:#000000;fill-opacity:1;fill-rule:nonzero;stroke:none"
             id="path3791"
             inkscape:connector-curvature="0" /></g><g
           id="g3793"
           transform="translate(70,121.9998)"><path
             d="m 0,0 c 0,-3.313 -2.687,-6 -6,-6 -3.313,0 -6,2.687 -6,6 0,3.314 2.687,6 6,6 3.313,0 6,-2.686 6,-6"
             style="fill:#000000;fill-opacity:1;fill-rule:nonzero;stroke:none"
             id="path3795"
             inkscape:connector-curvature="0" /></g><g
           id="g3797"
           transform="translate(70,63.9998)"><path
             d="m 0,0 c 0,-3.313 -2.687,-6 -6,-6 -3.313,0 -6,2.687 -6,6 0,3.314 2.687,6 6,6 3.313,0 6,-2.686 6,-6"
             style="fill:#0078d4;fill-opacity:1;fill-rule:nonzero;stroke:none"
             id="path3799"
             inkscape:connector-curvature="0" /></g><g
           id="g3801"
           transform="translate(70,5.9998)"><path
             d="m 0,0 c 0,-3.313 -2.687,-6 -6,-6 -3.313,0 -6,2.687 -6,6 0,3.314 2.687,6 6,6 3.313,0 6,-2.686 6,-6"
             style="fill:#000000;fill-opacity:1;fill-rule:nonzero;stroke:none"
             id="path3803"
             inkscape:connector-curvature="0" /></g><g
           id="g3805"
           transform="translate(128,121.9998)"><path
             d="m 0,0 c 0,-3.313 -2.687,-6 -6,-6 -3.313,0 -6,2.687 -6,6 0,3.314 2.687,6 6,6 3.313,0 6,-2.686 6,-6"
             style="fill:#000000;fill-opacity:1;fill-rule:nonzero;stroke:none"
             id="path3807"
             inkscape:connector-curvature="0" /></g><g
           id="g3809"
           transform="translate(128,64.0301)"><path
             d="m 0,0 c 0,-3.314 -2.687,-6 -6,-6 -3.313,0 -6,2.686 -6,6 0,3.313 2.687,6 6,6 3.313,0 6,-2.687 6,-6"
             style="fill:#000000;fill-opacity:1;fill-rule:nonzero;stroke:none"
             id="path3811"
             inkscape:connector-curvature="0" /></g><g
           id="g3813"
           transform="translate(128,5.9998)"><path
             d="m 0,0 c 0,-3.313 -2.687,-6 -6,-6 -3.313,0 -6,2.687 -6,6 0,3.314 2.687,6 6,6 3.313,0 6,-2.686 6,-6"
             style="fill:#0078d4;fill-opacity:1;fill-rule:nonzero;stroke:none"
             id="path3815"
             inkscape:connector-curvature="0" /></g></g></g></g></svg>